<?xml version="1.0" encoding="utf-8"?>
<!-- Generator: Adobe Illustrator 16.0.0, SVG Export Plug-In . SVG Version: 6.00 Build 0)  -->
<!DOCTYPE svg PUBLIC "-//W3C//DTD SVG 1.1//EN" "http://www.w3.org/Graphics/SVG/1.1/DTD/svg11.dtd">
<svg version="1.1" id="Layer_1" xmlns="http://www.w3.org/2000/svg" xmlns:xlink="http://www.w3.org/1999/xlink" 
	x="0px" y="0px"
	 width="400" height="400" 
	 viewBox="80 340 200 200">
<g id="Stacked_HZ_Logo">
	<g>
		<circle fill="#222222" cx="98.6" cy="408.6" r="4.2"/>
		<circle fill="#222222" cx="232.9" cy="408.6" r="4.2"/>
		<g>
			<path fill="#105570" d="M158.8,415.9h-49.4c-0.2,0-0.3,0.1-0.3,0.3c3,27,25.4,48.2,53,49.3c0.1,0,0.3-0.1,0.3-0.3v-47.4
				C161,417.5,159.8,416.8,158.8,415.9z"/>
			<path fill="#105570" d="M169.1,352v47.4c1.4,0.3,2.6,1,3.6,1.899h49.4c0.2,0,0.3-0.1,0.3-0.3c-3-27-25.4-48.2-53-49.3
				C169.2,351.7,169.1,351.8,169.1,352z"/>
		</g>
		<path fill="#4EC5D8" d="M169.1,417.8V454.9c0,0.1,0.1,0.3,0.3,0.3c21.8-1.101,39.6-17.7,42.6-39c0-0.2-0.1-0.3-0.3-0.3h-39
			C171.7,416.8,170.5,417.5,169.1,417.8z"/>
		<path fill="#4EC5D8" d="M162.4,399.4V362.3c0-0.1-0.1-0.3-0.3-0.3c-21.8,1.1-39.6,17.7-42.6,39c0,0.2,0.1,0.3,0.3,0.3h39
			C159.8,400.4,161,399.7,162.4,399.4z"/>
		<path fill="#222222" d="M156.5,406.6H97.3v3.9h59.2c-0.2-0.6-0.3-1.3-0.3-2S156.4,407.3,156.5,406.6z"/>
		<path fill="#222222" d="M175,406.6c0.2,0.601,0.3,1.301,0.3,2c0,0.7-0.1,1.301-0.3,2h58.3V406.7H175V406.6z"/>
		<circle fill="#222222" cx="165.7" cy="408.6" r="4.2"/>
	</g>
</g>
</svg>